<?xml version="1.0" encoding="utf-8" ?>
<svg xmlns="http://www.w3.org/2000/svg" xmlns:xlink="http://www.w3.org/1999/xlink" width="32" height="32" viewBox="0 0 32 32">
	<defs>
		<clipPath id="clipPath0322712737">
			<path d="M0 0L32 0L32 32L0 32L0 0Z" fill-rule="nonzero" transform="matrix(1 0 0 1 0 0)"/>
		</clipPath>
	</defs>
	<g clip-path="url(#clipPath0322712737)">
		<defs>
			<clipPath id="clipPath7506258573">
				<path d="M0 0L32 0L32 32L0 32L0 0Z" fill-rule="nonzero" transform="matrix(1 0 0 1 -0 -0)"/>
			</clipPath>
		</defs>
		<g clip-path="url(#clipPath7506258573)">
			<path d="M27.7492 6.01556C27.061 3.18931 24.8048 0.886815 21.9985 0.158064C19.9867 -0.364435 18.061 0.476815 16.4273 1.67869C16.2242 1.82806 15.9923 1.91181 15.771 2.02119L17.541 3.15931C18.0048 3.45744 18.1398 4.07619 17.841 4.54119C17.5623 4.97556 16.9492 5.15744 16.4592 4.84119L10.1773 0.80244C8.88353 0.124315 7.46603 -0.22256 6.00166 0.158065C3.19541 0.88744 0.939157 3.18931 0.251032 6.01556C-0.382093 8.61681 0.224782 11.0662 1.59478 12.9174C3.05478 14.8906 3.63728 17.2087 3.86291 19.6268C4.13791 22.5743 4.50853 25.5118 5.17166 28.3968L5.65916 30.5187C5.85853 31.3856 6.62728 31.9999 7.51353 31.9999C8.38666 31.9999 9.14791 31.4031 9.35978 30.5524L11.5142 21.9012C11.7992 20.7562 12.8242 19.9537 13.9992 19.9537C15.1742 19.9537 16.1992 20.7568 16.4842 21.9012L18.6385 30.5524C18.8504 31.4031 19.6117 31.9999 20.4848 31.9999C21.371 31.9999 22.1398 31.3856 22.3392 30.5187L22.8267 28.3968C23.4898 25.5124 23.8598 22.5743 24.1354 19.6268C24.361 17.2081 24.9435 14.8906 26.4035 12.9174C27.7754 11.0668 28.3823 8.61744 27.7492 6.01556Z" fill-rule="nonzero" transform="matrix(1 0 0 1 1.99959 6.04304e-05)" fill="rgb(255, 107, 107)"/>
		</g>
	</g>
</svg>
